<mxfile host="app.diagrams.net" modified="2023-11-18T21:05:11.039Z" agent="Mozilla/5.0 (Windows NT 10.0; Win64; x64) AppleWebKit/537.36 (KHTML, like Gecko) Chrome/119.0.0.0 Safari/537.36" etag="1IzFXsw0bbwQ3CUbicIp" version="22.1.3" type="github">
  <diagram name="Page-1" id="CFHb4FXrexWo8pa2X_ir">
    <mxGraphModel dx="880" dy="468" grid="1" gridSize="10" guides="1" tooltips="1" connect="1" arrows="1" fold="1" page="1" pageScale="1" pageWidth="850" pageHeight="1100" math="0" shadow="0">
      <root>
        <mxCell id="0" />
        <mxCell id="1" parent="0" />
        <mxCell id="7Qbx5zO968uQRB1o4zv0-1" value="" style="html=1;dashed=0;whiteSpace=wrap;shape=mxgraph.dfd.dataStoreID;align=left;spacingLeft=3;points=[[0,0],[0.5,0],[1,0],[0,0.5],[1,0.5],[0,1],[0.5,1],[1,1]];" parent="1" vertex="1">
          <mxGeometry x="600" y="80" width="160" height="30" as="geometry" />
        </mxCell>
        <mxCell id="7Qbx5zO968uQRB1o4zv0-2" value="" style="html=1;dashed=0;whiteSpace=wrap;shape=mxgraph.dfd.dataStoreID;align=left;spacingLeft=3;points=[[0,0],[0.5,0],[1,0],[0,0.5],[1,0.5],[0,1],[0.5,1],[1,1]];" parent="1" vertex="1">
          <mxGeometry x="600" y="130" width="160" height="30" as="geometry" />
        </mxCell>
        <mxCell id="7Qbx5zO968uQRB1o4zv0-12" value="1.0" style="swimlane;fontStyle=0;childLayout=stackLayout;horizontal=1;startSize=20;fillColor=#ffffff;horizontalStack=0;resizeParent=1;resizeParentMax=0;resizeLast=0;collapsible=0;marginBottom=0;swimlaneFillColor=#ffffff;rounded=1;" parent="1" vertex="1">
          <mxGeometry x="340" y="100" width="120" height="50" as="geometry" />
        </mxCell>
        <mxCell id="7Qbx5zO968uQRB1o4zv0-13" value="Manage Students" style="text;html=1;align=center;verticalAlign=middle;resizable=0;points=[];autosize=1;strokeColor=none;fillColor=none;" parent="7Qbx5zO968uQRB1o4zv0-12" vertex="1">
          <mxGeometry y="20" width="120" height="30" as="geometry" />
        </mxCell>
      </root>
    </mxGraphModel>
  </diagram>
</mxfile>
